HIERARCHY
ROOT Hips
{
	OFFSET -0.179506 -22.333345 2.821913
	CHANNELS 6 Xposition Yposition Zposition Zrotation Yrotation Xrotation 
	JOINT LeftUpLeg
	{
		OFFSET 6.951974 -9.140623 -0.681533
		CHANNELS 3 Zrotation Yrotation Xrotation
		JOINT LeftLeg
		{
			OFFSET 3.427654 -37.519855 -0.449580
			CHANNELS 3 Zrotation Yrotation Xrotation
			JOINT LeftFoot
			{
				OFFSET -1.359570 -39.796059 -4.369333
				CHANNELS 3 Zrotation Yrotation Xrotation
				JOINT LeftToe
				{
					OFFSET 2.635814 -5.579078 11.928840
					CHANNELS 3 Zrotation Yrotation Xrotation
					End Site
					{
						OFFSET 0.000000 0.000000 0.000000
					}
				}
			}
		}
	}
	JOINT RightUpLeg
	{
		OFFSET -6.767048 -9.052170 -0.431982
		CHANNELS 3 Zrotation Yrotation Xrotation
		JOINT RightLeg
		{
			OFFSET -3.829005 -38.256897 -0.885003
			CHANNELS 3 Zrotation Yrotation Xrotation
			JOINT RightFoot
			{
				OFFSET 1.577377 -39.841461 -4.231180
				CHANNELS 3 Zrotation Yrotation Xrotation
				JOINT RightToe
				{
					OFFSET -2.537174 -4.814398 12.334795
					CHANNELS 3 Zrotation Yrotation Xrotation
					End Site
					{
						OFFSET 0.000000 0.000000 0.000000
					}
				}
			}
		}
	}
	JOINT Spine
	{
		OFFSET -0.253288 10.896323 -2.669631
		CHANNELS 3 Zrotation Yrotation Xrotation
		JOINT Spine1
		{
			OFFSET 0.548704 13.518043 0.109247
			CHANNELS 3 Zrotation Yrotation Xrotation
			JOINT Spine2
			{
				OFFSET 0.145701 5.292222 2.542457
				CHANNELS 3 Zrotation Yrotation Xrotation
				JOINT Neck
				{
					OFFSET -0.277840 21.387037 -4.285703
					CHANNELS 3 Zrotation Yrotation Xrotation
					JOINT Head
					{
						OFFSET 0.515184 6.496960 5.134897
						CHANNELS 3 Zrotation Yrotation Xrotation
						End Site
						{
							OFFSET 0.000000 0.000000 0.000000
						}
					}
				}
				JOINT LeftShoulder
				{
					OFFSET 7.884473 12.174932 -3.408961
					CHANNELS 3 Zrotation Yrotation Xrotation
					JOINT LeftArm
					{
						OFFSET 9.097692 3.046888 -0.886815
						CHANNELS 3 Zrotation Yrotation Xrotation
						JOINT LeftForeArm
						{
							OFFSET 25.961220 -1.277207 -2.745643
							CHANNELS 3 Zrotation Yrotation Xrotation
							JOINT LeftHand
							{
								OFFSET 24.923361 0.898606 -0.117091
								CHANNELS 3 Zrotation Yrotation Xrotation
								End Site
								{
									OFFSET 0.000000 0.000000 0.000000
								}
							}
						}
					}
				}
				JOINT RightShoulder
				{
					OFFSET -8.175920 11.883285 -3.861528
					CHANNELS 3 Zrotation Yrotation Xrotation
					JOINT RightArm
					{
						OFFSET -9.601238 3.255117 -0.914307
						CHANNELS 3 Zrotation Yrotation Xrotation
						JOINT RightForeArm
						{
							OFFSET -25.374195 -1.332924 -2.140099
							CHANNELS 3 Zrotation Yrotation Xrotation
							JOINT RightHand
							{
								OFFSET -25.529810 0.777228 -0.555919
								CHANNELS 3 Zrotation Yrotation Xrotation
								End Site
								{
									OFFSET 0.000000 0.000000 0.000000
								}
							}
						}
					}
				}
			}
		}
	}
}
MOTION
Frames: 8
Frame Time: 0.033333
-0.179506 111.578506 2.821913 178.085866 5.673071 -177.552112 8.618848 4.060212 4.114838 -1.101096 -7.183747 2.007662 0.601156 10.507274 -13.253815 2.018815 -1.401779 -1.323645 -8.013859 -4.821406 -0.663652 1.368250 2.112054 9.497218 2.081179 -6.427286 -15.362923 1.427479 0.825270 -1.938611 -0.712827 1.192542 6.400101 0.928550 -2.480795 -2.610850 0.356380 -0.308947 2.661389 -0.944066 3.776886 -2.279832 1.436008 0.425825 -9.016869 -19.459929 -3.329396 -1.707931 -42.295956 -7.383384 10.600332 -0.569980 -18.398034 6.132290 -5.553061 -11.054899 -2.317446 19.344545 6.242902 -1.322001 40.986053 7.677619 8.080946 -4.567727 24.590688 -3.703289 7.149993 8.512551 -7.096145 
-0.051141 111.613876 2.909946 178.039049 6.078264 -177.536676 8.593969 3.997872 4.023093 -1.148698 -7.051399 2.222098 0.617586 10.742804 -13.038983 2.049991 -1.412693 -1.317201 -8.058881 -4.757792 -0.840449 1.499777 2.336184 9.500071 2.080290 -6.392758 -15.310146 1.410994 0.854203 -1.944057 -0.736237 1.280330 6.330709 0.936922 -2.478599 -2.611262 0.316685 -0.292505 2.579896 -0.938560 3.904445 -2.466611 1.305493 0.440623 -8.917492 -19.402179 -3.446829 -1.788063 -42.152273 -7.514602 10.713448 -0.625892 -17.960519 5.941795 -5.546117 -11.099907 -2.188344 19.394644 6.408234 -1.449547 41.006628 7.928440 8.236913 -4.636974 24.386840 -4.016557 7.165200 8.322970 -7.478332 
0.100106 111.636719 3.135439 178.002804 6.601038 -177.527810 8.576602 3.928490 3.705185 -1.213112 -6.848027 2.765321 0.645657 11.010095 -12.938377 2.053251 -1.412992 -1.291795 -8.058510 -4.615975 -1.283176 1.621889 2.520097 9.785298 2.041562 -6.297412 -15.355822 1.403504 0.876695 -1.967819 -0.729304 1.317315 6.463111 0.959445 -2.465929 -2.667338 0.294993 -0.301113 2.567463 -1.024838 4.142693 -2.674165 1.156004 0.486057 -8.972339 -19.249793 -3.731826 -1.865228 -42.034455 -7.736400 10.777448 -0.544504 -17.841528 5.757104 -5.473771 -11.140662 -2.112776 19.338687 6.655840 -1.577438 40.973258 8.266001 8.244592 -4.910825 24.439473 -4.409988 7.054970 8.204829 -8.024713 
0.298326 111.663162 3.457161 177.894087 7.259512 -177.582125 8.542209 3.977581 3.352027 -1.325084 -6.467390 3.427055 0.614631 11.148387 -12.797393 2.065842 -1.410890 -1.278093 -8.080512 -4.514932 -1.860638 1.678733 2.528862 10.247946 2.027572 -5.996648 -15.494309 1.451737 0.881490 -1.990195 -0.698524 1.301137 6.714111 0.952314 -2.466447 -2.688801 0.291727 -0.299258 2.572959 -1.204728 4.487195 -2.849770 0.981654 0.619735 -9.148061 -19.087920 -4.146991 -1.930307 -41.966543 -8.099066 10.819192 -0.395377 -17.862101 5.655181 -5.342261 -11.169399 -1.767079 19.293364 6.931171 -1.671764 40.911302 8.579291 8.135932 -5.354625 24.509933 -4.983435 6.806745 8.126918 -8.552915 
0.689533 111.716141 3.843229 177.657170 7.951765 -177.525608 8.548099 4.103467 2.948598 -1.476077 -5.969441 3.869629 0.421020 11.103428 -12.289083 2.052413 -1.395529 -1.272562 -8.104337 -4.323262 -2.655799 1.786421 2.532355 10.782533 1.899394 -5.780009 -15.621635 1.500496 0.876416 -1.994854 -0.644183 1.146660 7.085434 0.975318 -2.508328 -2.805055 0.293118 -0.382136 2.620895 -1.438571 5.072797 -3.112691 0.682534 0.844470 -9.121191 -18.932316 -4.602926 -1.988118 -42.026698 -8.588086 10.999262 -0.273659 -17.911282 5.660960 -5.156016 -11.155378 -1.335585 19.362414 7.142441 -1.799138 40.788401 8.828658 7.956379 -6.009415 24.300368 -6.057223 6.327605 8.122429 -9.132344 
1.283281 111.808273 4.344046 177.384176 8.949338 -177.338048 8.559049 4.352767 2.141604 -1.545988 -5.299988 4.790710 0.028384 11.078185 -11.596931 2.102178 -1.381962 -1.297182 -7.963707 -4.062525 -3.925806 1.844454 2.710394 11.665606 1.747725 -5.539082 -15.773794 1.553593 0.871070 -2.036688 -0.413239 0.781365 7.797417 1.009908 -2.594379 -3.101371 0.312230 -0.583005 2.826272 -1.891209 6.055741 -3.581371 0.191089 1.269808 -9.067389 -18.686878 -5.232437 -2.066342 -42.130904 -9.283058 11.149970 -0.302577 -18.192737 5.974194 -4.725186 -10.999208 -0.731491 19.478005 7.316810 -1.884463 40.535029 8.821284 7.597949 -6.749252 24.227363 -7.358638 5.469812 8.030953 -9.881741 
1.890418 111.943420 4.836683 177.171176 10.366648 -176.749800 8.564061 4.719849 0.900019 -1.597208 -4.342775 5.910557 -0.418245 11.104407 -10.742903 2.118343 -1.368275 -1.295087 -7.801814 -3.625443 -5.925264 2.061605 3.171883 12.930895 1.637138 -5.258220 -15.643607 1.632025 0.840922 -2.056051 0.012776 0.129878 8.768438 1.125476 -2.792922 -3.503484 0.343744 -0.955327 3.092073 -2.582265 7.735769 -4.089981 -0.489956 2.198539 -9.012002 -18.440150 -5.980033 -2.175440 -42.112346 -10.226925 11.327385 -0.293513 -18.966517 6.188053 -4.066884 -10.778102 0.041759 19.690829 7.207652 -1.928668 40.244146 8.328074 7.008168 -7.853967 23.822906 -9.662385 4.234922 8.138962 -10.785006 
2.576320 112.094650 5.697499 176.820623 12.273985 -175.924940 8.485413 5.124706 -1.040551 -1.730490 -3.138185 7.525176 -0.820314 11.369429 -9.850103 2.122817 -1.374938 -1.243214 -7.752619 -3.185197 -8.925391 2.472269 3.779674 14.847963 1.659101 -4.767873 -15.426554 1.693357 0.807365 -2.072583 0.666193 -0.806049 10.178645 1.274136 -3.044835 -3.858246 0.427992 -1.514353 3.320665 -3.559777 9.628754 -4.692477 -1.278572 3.621487 -9.043988 -18.044644 -7.008360 -2.349585 -42.223787 -11.780278 11.477944 -0.076319 -20.000167 6.344584 -3.550418 -10.669236 1.002908 19.658582 6.858947 -1.813189 39.935110 7.327604 6.142539 -8.793248 22.661297 -12.099257 3.446760 8.238781 -11.959551 
